<svg width="269" height="290" viewBox="0 0 269 290" fill="none" xmlns="http://www.w3.org/2000/svg">
<path d="M269 281.994C269 281.994 236.692 289.903 196.838 289.903C156.984 289.903 124.677 281.994 124.677 281.994C124.677 281.994 156.984 274.084 196.838 274.084C236.692 274.084 269 281.994 269 281.994Z" fill="#CBB59B"/>
<path d="M175.693 278.395C176.022 277.837 176.262 277.07 175.851 276.276C174.655 273.958 169.876 265.92 169.212 262.981C168.698 260.698 169.454 257.226 169.819 255.789L156.48 246.21C153.039 248.879 147.355 254.774 146.171 256.013L175.693 278.395Z" fill="#46689C"/>
<path d="M173.415 281.305L143.891 258.923L146.171 256.013L175.693 278.395L173.415 281.305Z" fill="white"/>
<path d="M166.088 261.911L165.949 261.966C165.604 262.112 165.204 262.433 165.427 262.846C165.54 263.057 165.762 263.188 165.978 263.295C166.724 263.663 167.538 263.844 168.36 263.958C169.243 264.083 170.189 264.209 171.055 263.921C171.949 263.624 171.828 262.621 171.014 262.23C169.605 261.556 167.579 261.345 166.088 261.911Z" fill="white"/>
<path d="M167.084 265.152L166.946 265.207C166.601 265.353 166.201 265.674 166.424 266.087C166.537 266.299 166.758 266.429 166.975 266.537C167.721 266.904 168.535 267.084 169.357 267.2C170.24 267.323 171.186 267.45 172.051 267.162C172.946 266.865 172.824 265.861 172.011 265.471C170.602 264.797 168.575 264.584 167.084 265.152Z" fill="white"/>
<path d="M169.012 268.251L168.872 268.307C168.53 268.453 168.129 268.774 168.351 269.188C168.465 269.398 168.686 269.528 168.903 269.635C169.649 270.004 170.462 270.183 171.284 270.299C172.168 270.423 173.113 270.549 173.979 270.261C174.873 269.964 174.753 268.961 173.938 268.571C172.53 267.896 170.503 267.685 169.012 268.251Z" fill="white"/>
<path d="M209.509 208.622L191.83 189.95L152.707 244.46L171.855 259.031L209.509 208.622Z" fill="#6A262D"/>
<path d="M221.334 143.225L196.055 142.127C196.762 155.838 197.667 180.611 195.296 185.669C195.225 185.821 194.699 186.619 193.839 187.89L213.727 207.14C213.727 207.14 221.652 195.317 222.744 190.773C225.52 179.211 221.292 145.531 221.334 143.225Z" fill="#6A262D"/>
<path d="M172.206 142.49C172.206 142.49 192.028 198.62 196.872 211.879L201.149 267.44L222.537 263.948L222.287 257.6L220.184 203.465L203.642 143.715L178.634 142.746L172.206 142.49Z" fill="#864549"/>
<path d="M217.316 211.217C215.86 213.744 212.984 213.534 210.822 211.005C209.663 209.65 208.738 208.002 208.394 206.176C208.051 204.349 208.337 202.338 209.364 200.866C210.393 199.395 212.207 198.576 213.829 199.067C215.75 199.648 216.951 201.781 217.589 203.875C218.112 205.586 218.388 207.437 218.037 209.197C217.877 210 217.629 210.672 217.316 211.217Z" fill="#9C5B61"/>
<path d="M240.259 276.55C240.12 275.918 239.774 275.192 238.929 274.874C236.461 273.943 227.438 271.136 224.94 269.391C223.001 268.037 221.191 264.961 220.479 263.654L204.07 265.354C203.346 269.608 203.165 277.738 203.133 279.439L240.259 276.55Z" fill="#46689C"/>
<path d="M240.56 280.216L203.435 283.105L203.133 279.439L240.259 276.549L240.56 280.216Z" fill="white"/>
<path d="M221.898 270.662L221.833 270.794C221.678 271.13 221.601 271.633 222.048 271.793C222.276 271.874 222.529 271.825 222.762 271.761C223.566 271.541 224.291 271.138 224.977 270.681C225.715 270.189 226.502 269.658 226.945 268.873C227.405 268.061 226.63 267.397 225.76 267.645C224.259 268.075 222.614 269.256 221.898 270.662Z" fill="white"/>
<path d="M224.848 272.408L224.783 272.541C224.627 272.876 224.551 273.379 224.997 273.539C225.225 273.621 225.479 273.571 225.712 273.508C226.515 273.288 227.24 272.885 227.927 272.428C228.664 271.936 229.452 271.405 229.895 270.619C230.354 269.808 229.58 269.144 228.71 269.392C227.208 269.821 225.564 271.004 224.848 272.408Z" fill="white"/>
<path d="M228.391 273.435L228.326 273.568C228.17 273.903 228.094 274.407 228.54 274.566C228.768 274.648 229.021 274.598 229.254 274.535C230.057 274.315 230.782 273.912 231.469 273.454C232.208 272.964 232.994 272.432 233.438 271.647C233.896 270.836 233.123 270.171 232.254 270.419C230.751 270.848 229.107 272.031 228.391 273.435Z" fill="white"/>
<path d="M172.206 142.49C172.206 142.49 192.028 198.62 196.872 211.879L201.149 267.44L222.537 263.948L222.287 257.6L205.561 258.597C205.561 258.597 202.028 213.502 200.99 208.669C200.043 204.264 181.848 151.986 178.634 142.746L172.206 142.49Z" fill="#6A262D"/>
<path d="M218.194 55.1195C218.194 55.1195 225.488 59.0513 227.675 61.946C229.861 64.8406 235.718 88.3809 235.718 88.3809C235.718 88.3809 246.334 103.705 247.066 107.018C247.798 110.332 243.406 123.632 240.111 124.87C236.817 126.108 218.194 122.085 218.194 122.085L211.256 88.3809L218.194 55.1195Z" fill="#E04428"/>
<path d="M183.888 51.7174L170.19 55.627C170.19 55.627 163.15 109.774 163.15 113.08C163.15 116.385 165.363 126.841 165.363 126.841C165.363 126.841 161.229 138.398 163.15 140.599C165.071 142.8 186.465 148.537 204.869 148.145C223.272 147.752 227.631 140.676 227.666 139.361C227.73 136.884 223.322 129.1 223.322 129.1C223.322 129.1 227.906 121.614 227.667 118.586C227.426 115.56 218.194 55.1195 218.194 55.1195L210.539 53.7163L183.888 51.7174Z" fill="#E04428"/>
<path d="M218.057 63.7397L219.796 85.6526L222.538 83.7109L218.057 63.7397Z" fill="#633E2F"/>
<path d="M210.539 53.7163C208.613 57.1287 205.117 61.4209 199.486 61.907C192.146 62.5481 186.215 55.1369 183.888 51.7173C187.255 50.7755 190.413 50.0421 190.413 50.0421L203.044 50.5902C203.044 50.5902 206.979 52.088 210.539 53.7163Z" fill="#F68672"/>
<path d="M204.006 54.8331L199.642 57.5917C199.642 57.5917 192.125 52.889 190.409 50.0389L190.312 48.9428L189.947 42.3899L203.189 38.4103C203.189 38.4103 202.954 40.7561 202.866 43.7502C202.751 47.5428 202.875 52.3616 204.006 54.8331Z" fill="#F68672"/>
<path d="M202.866 43.7502C199.386 45.6394 193.109 48.9977 192.047 49.3509C191.474 49.5338 190.862 49.2992 190.312 48.9428L189.947 42.39L203.189 38.4104C203.189 38.4104 202.954 40.7561 202.866 43.7502Z" fill="#F36269"/>
<path d="M206.064 37.2323C206.064 37.2323 205.705 38.1407 204.226 39.3418H204.224C203.922 39.5884 203.57 39.8477 203.167 40.1134C201.625 41.1236 187.361 46.5294 185.216 46.1476C183.071 45.765 181.359 38.2465 181.281 37.4606C180.795 32.6362 179.528 17.7375 179.528 17.7375C185.548 1.82388 204.172 11.0097 206.261 12.6889C208.35 14.368 206.064 37.2323 206.064 37.2323Z" fill="#F68672"/>
<path d="M204.224 39.3418C203.922 39.5884 203.57 39.8477 203.167 40.1134C201.625 41.1236 187.361 46.5294 185.216 46.1476C183.071 45.765 181.359 38.2465 181.281 37.4606C182.483 40.7823 183.807 45.3609 185.34 45.283C187.651 45.1668 202.484 40.1643 204.224 39.3418Z" fill="#F9AA7F"/>
<path d="M181.031 22.4426C181.031 22.4426 183.356 18.8019 184.89 20.0651C186.425 21.3282 185.789 21.5191 185.789 21.5191L181.031 22.4426Z" fill="#F46F2E"/>
<path d="M201.309 18.9976C201.309 18.9976 195.89 14.1485 194.202 16.3328C193.217 17.6079 194.1 18.2777 194.1 18.2777L201.309 18.9976Z" fill="#F46F2E"/>
<path d="M182.572 26.8247C182.523 27.9487 183.05 28.8849 183.749 28.9151C184.447 28.9454 185.052 28.0584 185.101 26.9345C185.15 25.8105 184.623 24.8743 183.924 24.844C183.226 24.8138 182.62 25.7 182.572 26.8247Z" fill="#121414"/>
<path d="M181.529 25.7898C181.529 25.7898 181.946 26.4095 182.661 26.7364C183.377 27.0625 184.118 26.9727 184.118 26.9727C184.118 26.9727 183.699 26.353 182.985 26.0269C182.269 25.7 181.529 25.7898 181.529 25.7898Z" fill="white"/>
<path d="M198.112 25.2132C198.054 26.5782 197.318 27.656 196.47 27.6195C195.621 27.5821 194.982 26.4454 195.04 25.0796C195.099 23.7138 195.835 22.6368 196.684 22.6734C197.532 22.7108 198.172 23.8475 198.112 25.2132Z" fill="#121414"/>
<path d="M199.484 24.0709C199.484 24.0709 198.913 24.7765 198.013 25.097C197.114 25.4168 196.227 25.2299 196.227 25.2299C196.227 25.2299 196.798 24.5235 197.698 24.2038C198.597 23.884 199.484 24.0709 199.484 24.0709Z" fill="white"/>
<path d="M194.682 38.9695C193.383 39.5542 191.826 39.5327 190.544 38.9115C190.969 39.5932 191.588 40.0116 192.389 40.0163C193.192 40.0203 194.116 39.5391 194.682 38.9695Z" fill="#F14568"/>
<path d="M183.55 33.1119C183.304 33.6934 182.027 33.7069 180.699 33.1413C179.369 32.5757 178.492 31.6467 178.738 31.0644C178.985 30.4829 180.261 30.4702 181.591 31.0358C182.919 31.6005 183.796 32.5304 183.55 33.1119Z" fill="#F36269"/>
<path d="M200.66 31.0915C200.852 31.9928 199.338 33.0809 197.279 33.5216C195.219 33.9615 193.393 33.5876 193.201 32.6864C193.01 31.7844 194.523 30.697 196.584 30.2563C198.643 29.8156 200.469 30.1903 200.66 31.0915Z" fill="#F36269"/>
<path d="M197.845 35.0934C197.845 35.0934 197.752 35.2103 197.59 35.4131C197.427 35.6231 197.16 35.9015 196.798 36.2141C196.082 36.8418 194.901 37.5489 193.446 37.8512C191.99 38.1487 190.628 37.9673 189.722 37.6746C189.267 37.5298 188.912 37.3795 188.679 37.2514C188.45 37.1289 188.318 37.0581 188.318 37.0581C188.318 37.0581 188.463 37.0915 188.716 37.1496C188.968 37.2156 189.34 37.28 189.794 37.3349C190.705 37.4503 191.963 37.4463 193.307 37.1726C194.649 36.8918 195.807 36.3979 196.598 35.9318C196.994 35.7011 197.311 35.4943 197.516 35.3344C197.725 35.1809 197.845 35.0934 197.845 35.0934Z" fill="#F14568"/>
<path d="M192.087 31.6738C190.544 32.7795 188.339 32.8622 186.719 31.8743C186.924 33.174 188.152 34.2877 189.465 34.2471C190.777 34.2065 191.962 32.9847 192.087 31.6738Z" fill="#F36269"/>
<path d="M189.081 33.8835C188.727 33.8024 188.312 33.6497 187.925 33.3991C187.538 33.1485 187.209 32.7946 187.137 32.373C187.054 31.9586 187.276 31.6165 187.645 31.3715C187.897 31.2092 188.177 31.1345 188.447 31.1082C188.562 31.0971 188.665 31.0939 188.766 31.1011C188.777 30.9698 188.781 30.8266 188.788 30.6636C188.802 29.9787 188.764 29.06 188.578 28.0434C188.226 26.0754 187.453 24.5999 187.358 24.4297C187.357 24.6246 187.404 26.2743 187.755 28.1897C187.916 29.1101 188.123 29.935 188.3 30.5809C187.999 30.5498 187.665 30.5856 187.322 30.7423C187.034 30.868 186.755 31.0661 186.538 31.3779C186.32 31.7 186.237 32.1272 186.316 32.5098C186.447 33.3013 187.069 33.7968 187.583 34.0283C188.117 34.263 188.637 34.3314 189.051 34.2988C189.475 34.2789 189.799 34.1802 190.008 34.0927C190.162 34.0267 190.264 33.9718 190.308 33.9488C190.214 33.9639 189.733 34.0251 189.081 33.8835Z" fill="#F14568"/>
<path d="M212.439 22.1929C213.232 23.099 213.58 24.3915 213.338 25.5752C213.232 26.0827 213.051 26.5798 212.787 27.0205C212.44 27.625 211.945 28.1317 211.313 28.4332C211.149 27.6457 210.805 26.5901 210.487 26.1781C209.343 25.6237 208.096 25.875 207.209 26.7858C206.315 27.695 206.09 29.1849 206.659 30.3271C205.666 29.6486 205.005 28.5111 204.889 27.3124C204.667 28.0211 204.446 28.7235 204.224 29.4259C203.099 26.6681 203.596 23.3002 205.49 20.9958C204.77 21.0562 204.05 21.1087 203.337 21.17C204.325 20.9218 204.991 19.6348 204.748 18.5689C204.458 17.324 203.374 16.4276 202.273 15.7753C201.179 15.1238 199.973 14.5965 199.121 13.6419C199.055 14.0985 198.998 14.5471 198.939 15.0037C197.82 14.5877 196.99 13.4876 196.889 12.2976C195.939 14.33 194.008 15.8755 191.812 16.3615C191.825 15.5208 191.531 14.5742 191.536 13.7334C191.438 15.1214 190.725 16.4443 189.634 17.2922C188.537 18.1401 187.071 18.4965 185.707 18.2388C186.171 18.106 186.287 17.5523 186.262 17.0766C185.184 18.6826 183.367 19.7668 181.442 19.9506C179.519 20.1351 177.527 19.4136 176.166 18.0463C177.574 18.6731 179.444 17.6295 179.655 16.0935C179.709 15.7443 179.678 15.3911 179.609 15.0435C178.045 15.1898 176.434 14.8669 175.055 14.0961C175.352 14.116 175.644 14.0675 175.916 13.9569C176.576 13.6952 177.121 13.0994 177.424 12.4392C177.854 11.5014 177.922 10.4562 178.103 9.43879C178.276 8.42858 178.605 7.37143 179.396 6.71758C179.642 6.51394 179.946 6.37394 180.262 6.29599C179.388 5.66122 178.928 4.48636 178.972 2.78172C180.265 3.7633 182.122 3.5533 183.608 2.89865C185.094 2.2448 186.399 1.20674 187.906 0.591866C190.144 -0.313349 192.763 -0.16143 194.923 0.919579C195.361 0.678558 195.82 0.476524 196.298 0.351641C197.905 -0.0763092 199.694 0.193348 201.099 1.08822C203.744 0.460617 206.511 1.09379 208.356 3.09433C210.201 5.10203 210.864 8.12313 210.034 10.7187C210.739 10.2979 211.452 9.86992 212.158 9.44197C212.526 10.4601 212.259 11.6724 211.509 12.4432C212.909 12.1982 214.421 12.7303 215.351 13.8034C214.621 13.9251 213.882 14.046 213.152 14.1669C214.628 14.9886 215.545 16.7195 215.396 18.4114C215.247 20.0961 214.035 21.6425 212.439 22.1929Z" fill="#F35E23"/>
<path d="M215.396 18.4113C215.308 19.3794 214.871 20.3092 214.214 21.0227C213.718 21.5517 213.113 21.9614 212.439 22.1928C213.232 23.0989 213.58 24.3915 213.338 25.5751C213.232 26.0826 213.051 26.5797 212.787 27.0204C211.352 26.4763 210.182 25.1089 210.181 23.5483C209.39 22.7791 208.989 21.6376 209.128 20.5415C208.415 20.9766 207.894 21.7116 207.714 22.5229C207.876 20.1883 208.046 17.8473 208.209 15.5055C207.574 16.052 206.932 16.5977 206.298 17.1442C207.215 14.9957 206.114 12.2084 203.98 11.2666C203.94 11.8155 203.893 12.3572 203.855 12.906C201.997 12.4662 200.419 11.0049 199.832 9.18893C199.397 10.0576 198.971 10.919 198.537 11.7797C198.02 10.8697 197.502 9.95254 196.984 9.0346C195.735 10.0361 194.485 11.0375 193.235 12.047C192.896 11.0837 192.555 10.1204 192.216 9.16427C191.913 11.5538 190.135 13.6872 187.835 14.4062C187.785 13.6537 187.725 12.8941 187.674 12.1424C186.656 14.3315 184.241 15.803 181.826 15.6901C182.229 14.66 182.625 13.6211 183.021 12.5902C181.024 14.1024 178.323 14.6051 175.916 13.9568C176.576 13.6951 177.121 13.0993 177.424 12.4391C177.694 11.8537 177.82 11.2324 177.924 10.5937C177.986 10.2135 178.033 9.82528 178.103 9.43869C178.276 8.42848 178.605 7.37134 179.396 6.71748C179.642 6.51385 179.946 6.37385 180.262 6.29589C179.388 5.66113 178.928 4.48626 178.972 2.78163C180.265 3.7632 182.122 3.55321 183.608 2.89855C185.094 2.2447 186.399 1.20665 187.906 0.591768C190.144 -0.313448 192.763 -0.161528 194.923 0.919481C195.361 0.678461 195.82 0.476427 196.298 0.351542C197.905 -0.0764065 199.694 0.193251 201.099 1.08812C203.744 0.46052 206.511 1.09369 208.356 3.09423C210.201 5.10193 210.864 8.12303 210.034 10.7186C210.739 10.2978 211.452 9.86982 212.158 9.44188C212.526 10.46 212.259 11.6723 211.509 12.4431C212.909 12.1981 214.421 12.7302 215.351 13.8033C214.621 13.925 213.882 14.0459 213.152 14.1668C214.628 14.9885 215.545 16.7194 215.396 18.4113Z" fill="#F46F2E"/>
<path d="M215.396 18.4114C215.308 19.3794 214.871 20.3093 214.214 21.0228C212.552 20.1089 211.491 18.1576 211.68 16.2533C211.369 16.729 211.059 17.2055 210.74 17.6812C210.668 16.3544 210.604 15.0276 210.531 13.7016C209.962 14.3347 209.384 14.9671 208.816 15.6011C208.798 13.3508 208.002 11.1044 206.598 9.34491C206.022 9.749 205.44 10.1443 204.866 10.5476C205.537 9.32183 206.237 7.968 205.968 6.60222C205.748 5.51326 204.871 4.58736 203.799 4.31214C202.728 4.03612 201.512 4.41952 200.796 5.26747C200.812 4.21271 200 3.20566 198.963 3.0076C197.933 2.80237 196.799 3.42601 196.414 4.4044C195.035 3.45703 193.091 3.73941 191.678 4.64224C190.265 5.54507 189.265 6.95539 188.297 8.32037C188.164 7.34277 188.031 6.35801 187.898 5.37325C187.227 7.80731 184.888 9.67263 182.371 9.77683C182.911 8.95912 183.443 8.13265 183.982 7.31494C181.915 8.32674 179.898 9.41729 177.924 10.5938C177.986 10.2135 178.033 9.82535 178.104 9.43877C178.277 8.42856 178.605 7.37141 179.396 6.71756C179.642 6.51393 179.946 6.37392 180.262 6.29597C179.388 5.66121 178.928 4.48634 178.972 2.7817C180.266 3.76328 182.122 3.55328 183.608 2.89863C185.094 2.24478 186.399 1.20672 187.906 0.591845C190.144 -0.31337 192.763 -0.161449 194.923 0.919558C195.361 0.678539 195.82 0.476505 196.298 0.35162C197.905 -0.0763283 199.694 0.193327 201.099 1.0882C203.744 0.460596 206.511 1.09377 208.356 3.09431C210.201 5.10201 210.864 8.12311 210.034 10.7186C210.739 10.2979 211.452 9.8699 212.158 9.44195C212.526 10.4601 212.26 11.6724 211.509 12.4432C212.91 12.1982 214.421 12.7303 215.351 13.8034C214.621 13.9251 213.883 14.046 213.152 14.1669C214.628 14.9886 215.545 16.7195 215.396 18.4114Z" fill="#F68640"/>
<path d="M203.979 37.7136C206.872 37.6118 209.047 35.9883 210.233 34.6011C210.499 34.2885 210.716 33.9878 210.879 33.7197C211.767 32.2585 212.229 27.0761 210.161 25.778C208.711 24.8688 207.576 26.0468 207.028 26.8351V26.8383C206.794 27.1732 206.665 27.4373 206.665 27.4373L203.979 37.7136Z" fill="#F9AA7F"/>
<path d="M203.979 37.7136C206.872 37.6118 209.047 35.9883 210.233 34.6011C210.336 34.4587 210.427 34.3234 210.506 34.1938C211.394 32.7326 211.855 27.551 209.786 26.2537C208.613 25.5163 207.644 26.1487 207.028 26.8351V26.8383C206.794 27.1732 206.665 27.4373 206.665 27.4373L203.979 37.7136Z" fill="#F68672"/>
<path d="M210.652 29.931C210.74 30.351 210.654 30.7805 210.5 31.1846C209.845 32.9012 208.052 34.1556 206.337 35.3177C206.873 34.4945 207.099 33.5487 207.037 32.6148C207.015 32.2895 206.96 31.965 206.97 31.6404C207.014 30.3335 210.129 27.4484 210.652 29.931Z" fill="#F36269"/>
<path d="M205.48 35.7767L205.577 35.7274C205.638 35.6932 205.737 35.6495 205.851 35.5787C206.08 35.4395 206.398 35.2135 206.704 34.8723C207.007 34.5319 207.29 34.0713 207.437 33.5185C207.574 32.9664 207.579 32.3166 207.307 31.6786C207.279 31.5983 207.237 31.5211 207.197 31.4447L207.166 31.3875L207.162 31.3811L207.163 31.3827L207.161 31.3819H207.16L207.166 31.3724L207.195 31.3238L207.256 31.2268L207.379 31.0383C207.548 30.7893 207.728 30.557 207.911 30.3423C208.095 30.1267 208.286 29.9294 208.471 29.7505C208.66 29.5723 208.841 29.4052 209.019 29.2827C209.196 29.1602 209.389 29.0831 209.567 29.068C209.746 29.056 209.912 29.1029 210.021 29.1642C210.134 29.2262 210.194 29.3026 210.217 29.3583L210.243 29.4466L210.242 29.3535C210.233 29.2923 210.19 29.1992 210.08 29.1093C209.971 29.0226 209.798 28.9367 209.563 28.9208C209.329 28.9089 209.072 28.9765 208.841 29.0942C208.608 29.2127 208.397 29.3639 208.174 29.5309C207.953 29.6995 207.728 29.8904 207.509 30.1044C207.292 30.3184 207.08 30.5546 206.887 30.8124L206.744 31.0096L206.676 31.1114L206.585 31.2546L206.522 31.3557L206.575 31.4622L206.653 31.6134L206.748 31.8162C206.984 32.3698 207.017 32.9402 206.947 33.4469C206.864 33.9536 206.674 34.399 206.45 34.749C206.225 35.0998 205.975 35.3567 205.788 35.5254C205.695 35.6097 205.613 35.6678 205.56 35.7115L205.48 35.7767Z" fill="#D03B58"/>
<path d="M175.946 194.371C175.946 197.45 167.968 198.614 162.514 198.493C157.274 198.607 149.725 197.539 149.13 194.735C149.094 194.616 149.082 194.496 149.082 194.371C149.082 191.769 152.059 177.09 153.458 170.335C153.892 168.264 154.172 166.933 154.172 166.933H170.85C170.85 166.933 171.129 168.264 171.564 170.335C172.963 177.09 175.946 191.769 175.946 194.371Z" fill="#46689C"/>
<path d="M171.564 170.335C171.129 168.264 170.85 166.933 170.85 166.933H167.884H154.172C154.172 166.933 153.892 168.264 153.458 170.335H168.653C170.327 177.833 172.75 189.382 172.273 191.178C171.6 193.75 159.93 198.249 149.13 194.735C149.725 197.539 157.274 198.607 162.514 198.493C167.968 198.614 175.946 197.45 175.946 194.371C175.946 191.769 172.963 177.09 171.564 170.335Z" fill="#2C507E"/>
<path d="M172.274 168.315H152.75V163.849H172.274V168.315Z" fill="#46689C"/>
<path d="M168.449 184.799H153.594V178.135H168.449V184.799Z" fill="white"/>
<path d="M170.19 153.672C169.788 154.093 169.089 154.19 168.588 153.895C168.145 156.372 167.7 158.85 167.255 161.327C167.151 161.913 166.97 162.595 166.416 162.811C165.689 163.093 164.993 162.355 164.584 161.689C163.619 160.116 162.991 158.461 162.337 156.789H160.102C160.218 157.822 161.016 159.152 161.407 159.84C161.799 160.529 163.983 166.914 164.121 166.941C165.571 167.234 167.088 167.197 168.522 166.83C168.135 162.392 168.707 157.872 170.19 153.672Z" fill="#2AB57E"/>
<path d="M173.369 148.087C174.288 146.796 173.888 144.764 172.549 143.918C171.211 143.073 169.21 143.586 168.442 144.973C168.143 143.606 166.781 142.556 165.386 142.616C163.991 142.676 162.723 143.84 162.543 145.228C161.606 143.68 159.597 142.875 157.854 143.349C156.11 143.823 154.783 145.536 154.756 147.347C153.805 147.109 152.753 147.121 151.894 147.595C151.034 148.067 150.429 149.068 150.61 150.034C150.787 151 151.886 151.746 152.801 151.391C151.952 152.056 151.694 153.368 152.226 154.307C152.759 155.245 154.015 155.695 155.02 155.305C153.716 157.119 154.748 160.101 156.892 160.719C159.085 161.349 161.266 159.422 161.364 157.259L161.401 157.327C161.411 158.362 162.059 159.335 162.927 159.907C163.839 160.506 164.952 160.723 166.041 160.77C169.089 160.898 173.974 158.841 172.81 155.005L172.808 154.922C174.727 154.741 176.856 154.204 177.1 151.863C177.31 149.849 175.381 147.896 173.369 148.087Z" fill="#2EAE7D"/>
<path d="M158.368 185.612C158.296 189.437 158.216 192.899 158.16 195.198C158.12 196.794 157.075 198.058 155.797 198.058H143.397C142.119 198.058 141.074 196.794 141.034 195.198C140.978 192.899 140.898 189.437 140.825 185.612C140.736 180.956 140.672 175.776 140.689 171.541C140.713 166.994 140.825 163.551 141.106 162.989C142.055 161.152 145.286 159.316 145.286 159.316L146.049 143.969H153.137L153.909 159.316C153.909 159.316 157.139 161.152 158.087 162.989C158.368 163.551 158.481 166.994 158.497 171.541C158.522 175.776 158.456 180.956 158.368 185.612Z" fill="#C07E53"/>
<path d="M153.227 145.259H145.966C145.436 145.259 145.006 144.829 145.006 144.297V143.469C145.006 142.938 145.436 142.508 145.966 142.508H153.227C153.757 142.508 154.187 142.938 154.187 143.469V144.297C154.187 144.829 153.757 145.259 153.227 145.259Z" fill="#363950"/>
<path d="M158.368 185.612H140.825C140.736 180.956 140.672 175.776 140.689 171.541H158.497C158.522 175.776 158.456 180.956 158.368 185.612Z" fill="#F68640"/>
<path d="M198.313 157.258V192.773H173.624V157.258H198.313Z" fill="#5B9FDC"/>
<path d="M181.893 157.258H176.495V155.074H181.893V157.258Z" fill="#363950"/>
<path d="M198.313 174.087V179.673L198.139 179.738C195.897 180.561 193.782 181.991 192.617 184.086C191.796 185.552 191.342 187.42 189.85 188.19C188.12 189.083 186.095 187.963 184.294 187.21C180.94 185.792 177.072 185.704 173.624 186.848V168.18C175.499 169.044 177.765 169.172 179.752 168.53C183.007 167.479 185.5 164.748 187.027 161.688C187.731 160.27 188.261 158.787 188.692 157.258H191.814C191.523 160.912 192.186 164.642 193.777 167.94C194.883 170.252 196.439 172.342 198.313 174.087Z" fill="white"/>
<path d="M178.823 173.852L179.892 176.415L180.961 173.852H182.672V178.76H181.261V176.071L180.423 178.284H179.361L178.523 176.071V178.76H177.112V173.852H178.823Z" fill="#363950"/>
<path d="M184.994 173.852V178.76H183.373V173.852H184.994Z" fill="#363950"/>
<path d="M187.315 173.852V177.409H189.354V178.76H185.694V173.852H187.315Z" fill="#363950"/>
<path d="M192.891 178.76L191.871 177.073L191.396 177.605V178.76H189.776V173.852H191.396V175.554L192.856 173.852H194.722L192.976 175.826L194.827 178.76H192.891Z" fill="#363950"/>
<path d="M193.537 196.088C193.873 196.174 194.222 196.257 194.564 196.198C194.905 196.139 195.24 195.903 195.308 195.561C195.397 195.115 195.024 194.722 194.669 194.438C193.545 193.538 192.276 192.821 190.925 192.325C192.934 192.542 195.004 192.163 196.807 191.246C197.39 190.949 198.03 190.305 197.689 189.745C197.481 189.406 197.024 189.34 196.628 189.32C195.087 189.246 193.537 189.343 192.016 189.611C193.277 188.941 194.237 187.725 194.6 186.341C194.697 185.968 194.716 185.493 194.393 185.281C194.096 185.085 193.7 185.246 193.392 185.425C192.171 186.132 191.1 187.096 190.267 188.235C190.646 187.703 191.038 187.135 191.085 186.483C191.131 185.832 190.678 185.097 190.026 185.097C189.516 185.097 189.114 185.515 188.8 185.917C187.834 187.151 184.979 191.369 185.94 192.987C186.395 193.753 188.535 194.346 189.332 194.678C190.698 195.246 192.104 195.717 193.537 196.088Z" fill="#2EAE7D"/>
<path d="M183.636 188.188C182.284 188.103 180.947 188.458 179.661 188.926C179.473 188.993 179.277 189.072 179.091 189.148C178.951 189.197 178.822 189.251 178.687 189.304C175.522 190.564 172.265 192.012 169.189 193.722C169.011 193.82 168.83 193.921 168.653 194.026C166.799 195.075 165.016 196.228 163.358 197.49C160.991 199.293 161.861 200.538 164.476 200.461C165.407 200.434 166.338 200.385 167.271 200.309C167.473 200.301 167.68 200.282 167.884 200.268C169.967 200.095 172.05 199.819 174.111 199.444C174.311 199.404 174.51 199.365 174.709 199.326C175.761 199.123 176.808 198.893 177.842 198.635C178.039 198.587 178.231 198.536 178.427 198.481C179.59 198.181 180.742 197.844 181.882 197.479C182.732 197.204 183.598 196.896 184.394 196.491C184.597 196.389 184.796 196.283 184.978 196.168C185.409 195.914 185.815 195.621 186.183 195.284C187.371 194.177 188.115 192.442 187.613 190.895C187.09 189.269 185.335 188.298 183.636 188.188Z" fill="#F68640"/>
<path d="M166.784 198.197C166.944 198.897 167.106 199.605 167.271 200.309C167.472 200.301 167.68 200.282 167.884 200.268C167.717 199.534 167.55 198.8 167.384 198.065C167.287 197.684 166.696 197.813 166.784 198.197Z" fill="#F46F2E"/>
<path d="M169.189 193.722C169.011 193.82 168.83 193.921 168.653 194.026C169.126 195.46 169.534 196.917 169.873 198.388C169.961 198.772 170.559 198.641 170.472 198.257C170.12 196.726 169.692 195.212 169.189 193.722Z" fill="#F46F2E"/>
<path d="M172.753 195.073C173.333 196.487 173.785 197.952 174.111 199.444C174.311 199.404 174.51 199.365 174.709 199.325C174.375 197.778 173.898 196.261 173.295 194.795C173.145 194.429 172.604 194.707 172.753 195.073Z" fill="#F46F2E"/>
<path d="M176.289 192.566C177.027 194.526 177.546 196.565 177.842 198.635C178.039 198.587 178.231 198.536 178.427 198.481C178.122 196.368 177.59 194.292 176.834 192.283C176.698 191.918 176.154 192.201 176.289 192.566Z" fill="#F46F2E"/>
<path d="M179.661 188.926C179.473 188.993 179.277 189.072 179.091 189.148C179.912 191.09 180.414 193.155 180.561 195.266C180.591 195.65 181.199 195.685 181.171 195.288C181.016 193.098 180.504 190.947 179.661 188.926Z" fill="#F46F2E"/>
<path d="M183.488 190.998C183.329 191.085 183.3 191.256 183.352 191.412C183.938 193.043 184.294 194.758 184.394 196.49C184.597 196.389 184.796 196.283 184.978 196.168C184.846 194.451 184.481 192.76 183.9 191.133C183.841 190.977 183.619 190.93 183.488 190.998Z" fill="#F46F2E"/>
<path d="M169.049 166.328C168.995 165.985 168.93 165.631 168.74 165.341C168.549 165.051 168.2 164.836 167.86 164.91C167.418 165.006 167.206 165.506 167.087 165.946C166.712 167.337 166.561 168.79 166.646 170.229C166.044 168.296 164.871 166.544 163.315 165.253C162.811 164.835 161.965 164.503 161.59 165.041C161.363 165.366 161.484 165.813 161.624 166.183C162.169 167.632 162.877 169.018 163.728 170.308C162.612 169.417 161.117 169.018 159.707 169.237C159.326 169.296 158.884 169.469 158.819 169.849C158.758 170.2 159.063 170.5 159.349 170.713C160.483 171.552 161.792 172.152 163.167 172.464C162.529 172.328 161.852 172.195 161.237 172.41C160.622 172.627 160.131 173.338 160.39 173.937C160.594 174.405 161.137 174.608 161.63 174.736C163.145 175.132 168.143 176.076 169.239 174.547C169.759 173.824 169.449 171.62 169.434 170.755C169.409 169.273 169.28 167.793 169.049 166.328Z" fill="#2EAE7D"/>
<path d="M165.767 178.577C166.228 179.855 167.087 180.942 168.027 181.937C168.164 182.084 168.314 182.231 168.458 182.373C168.558 182.483 168.66 182.58 168.76 182.682C171.176 185.089 173.8 187.504 176.591 189.65C176.75 189.775 176.915 189.902 177.082 190.021C178.781 191.307 180.546 192.488 182.363 193.508C184.956 194.965 185.749 193.67 184.635 191.296C184.24 190.451 183.824 189.615 183.383 188.787C183.294 188.607 183.194 188.423 183.1 188.24C182.111 186.395 181.03 184.59 179.863 182.845C179.748 182.678 179.633 182.511 179.518 182.343C178.911 181.457 178.285 180.588 177.636 179.738C177.514 179.576 177.391 179.419 177.261 179.263C176.524 178.312 175.757 177.388 174.969 176.486C174.378 175.814 173.75 175.142 173.062 174.57C172.888 174.425 172.712 174.285 172.534 174.163C172.13 173.868 171.7 173.612 171.245 173.407C169.759 172.757 167.875 172.766 166.659 173.843C165.379 174.972 165.191 176.973 165.767 178.577Z" fill="#F68640"/>
<path d="M181.643 190.078C182.221 189.651 182.804 189.22 183.383 188.788C183.294 188.607 183.194 188.423 183.1 188.24C182.495 188.686 181.89 189.134 181.285 189.579C180.973 189.82 181.327 190.311 181.643 190.078Z" fill="#F46F2E"/>
<path d="M176.591 189.65C176.75 189.775 176.915 189.902 177.082 190.021C178.205 189.015 179.376 188.06 180.587 187.162C180.903 186.928 180.545 186.43 180.228 186.664C178.968 187.597 177.753 188.595 176.591 189.65Z" fill="#F46F2E"/>
<path d="M176.405 185.836C177.469 184.739 178.628 183.74 179.863 182.846C179.748 182.678 179.633 182.511 179.518 182.343C178.234 183.267 177.037 184.31 175.935 185.45C175.66 185.733 176.13 186.12 176.405 185.836Z" fill="#F46F2E"/>
<path d="M172.702 183.584C174.202 182.126 175.86 180.836 177.636 179.738C177.514 179.576 177.391 179.419 177.262 179.263C175.451 180.385 173.763 181.702 172.226 183.198C171.947 183.468 172.423 183.855 172.702 183.584Z" fill="#F46F2E"/>
<path d="M168.027 181.937C168.165 182.084 168.314 182.231 168.458 182.373C169.907 180.844 171.596 179.559 173.47 178.582C173.809 178.403 173.599 177.829 173.246 178.013C171.304 179.028 169.54 180.357 168.027 181.937Z" fill="#F46F2E"/>
<path d="M168.398 177.595C168.541 177.705 168.708 177.664 168.831 177.553C170.09 176.365 171.518 175.354 173.062 174.571C172.888 174.425 172.712 174.285 172.535 174.163C171.016 174.968 169.614 175.978 168.356 177.16C168.238 177.278 168.282 177.502 168.398 177.595Z" fill="#F46F2E"/>
<path d="M197.323 180.85C197.323 181.39 196.958 181.827 196.507 181.827H195.319C194.868 181.827 194.502 181.39 194.502 180.85V169.819C194.502 169.279 194.868 168.842 195.319 168.842H196.507C196.958 168.842 197.323 169.279 197.323 169.819V180.85ZM197.323 197.081C197.323 197.621 196.958 198.058 196.507 198.058H195.319C194.868 198.058 194.502 197.621 194.502 197.081V186.05C194.502 185.51 194.868 185.073 195.319 185.073H196.507C196.958 185.073 197.323 185.51 197.323 186.05V197.081ZM191.979 180.85C191.979 181.39 191.613 181.827 191.162 181.827H189.974C189.523 181.827 189.158 181.39 189.158 180.85V169.819C189.158 169.279 189.523 168.842 189.974 168.842H191.162C191.613 168.842 191.979 169.279 191.979 169.819V180.85ZM191.979 197.081C191.979 197.621 191.613 198.058 191.162 198.058H189.974C189.523 198.058 189.158 197.621 189.158 197.081V186.05C189.158 185.51 189.523 185.073 189.974 185.073H191.162C191.613 185.073 191.979 185.51 191.979 186.05V197.081ZM186.634 180.85C186.634 181.39 186.269 181.827 185.818 181.827H184.631C184.18 181.827 183.814 181.39 183.814 180.85V169.819C183.814 169.279 184.18 168.842 184.631 168.842H185.818C186.269 168.842 186.634 169.279 186.634 169.819V180.85ZM186.634 197.081C186.634 197.621 186.269 198.058 185.818 198.058H184.631C184.18 198.058 183.814 197.621 183.814 197.081V186.05C183.814 185.51 184.18 185.073 184.631 185.073H185.818C186.269 185.073 186.634 185.51 186.634 186.05V197.081ZM181.29 180.85C181.29 181.39 180.924 181.827 180.474 181.827H179.286C178.834 181.827 178.469 181.39 178.469 180.85V169.819C178.469 169.279 178.834 168.842 179.286 168.842H180.474C180.924 168.842 181.29 169.279 181.29 169.819V180.85ZM181.29 197.081C181.29 197.621 180.924 198.058 180.474 198.058H179.286C178.834 198.058 178.469 197.621 178.469 197.081V186.05C178.469 185.51 178.834 185.073 179.286 185.073H180.474C180.924 185.073 181.29 185.51 181.29 186.05V197.081ZM175.946 180.85C175.946 181.39 175.58 181.827 175.129 181.827H173.942C173.491 181.827 173.125 181.39 173.125 180.85V169.819C173.125 169.279 173.491 168.842 173.942 168.842H175.129C175.58 168.842 175.946 169.279 175.946 169.819V180.85ZM175.946 197.081C175.946 197.621 175.58 198.058 175.129 198.058H173.942C173.491 198.058 173.125 197.621 173.125 197.081V186.05C173.125 185.51 173.491 185.073 173.942 185.073H175.129C175.58 185.073 175.946 185.51 175.946 186.05V197.081ZM170.601 180.85C170.601 181.39 170.236 181.827 169.785 181.827H168.597C168.145 181.827 167.781 181.39 167.781 180.85V169.819C167.781 169.279 168.145 168.842 168.597 168.842H169.785C170.236 168.842 170.601 169.279 170.601 169.819V180.85ZM170.601 197.081C170.601 197.621 170.236 198.058 169.785 198.058H168.597C168.145 198.058 167.781 197.621 167.781 197.081V186.05C167.781 185.51 168.145 185.073 168.597 185.073H169.785C170.236 185.073 170.601 185.51 170.601 186.05V197.081ZM165.257 180.85C165.257 181.39 164.891 181.827 164.441 181.827H163.252C162.802 181.827 162.437 181.39 162.437 180.85V169.819C162.437 169.279 162.802 168.842 163.252 168.842H164.441C164.891 168.842 165.257 169.279 165.257 169.819V180.85ZM165.257 197.081C165.257 197.621 164.891 198.058 164.441 198.058H163.252C162.802 198.058 162.437 197.621 162.437 197.081V186.05C162.437 185.51 162.802 185.073 163.252 185.073H164.441C164.891 185.073 165.257 185.51 165.257 186.05V197.081ZM159.912 180.85C159.912 181.39 159.547 181.827 159.096 181.827H157.909C157.458 181.827 157.092 181.39 157.092 180.85V169.819C157.092 169.279 157.458 168.842 157.909 168.842H159.096C159.547 168.842 159.912 169.279 159.912 169.819V180.85ZM159.912 197.081C159.912 197.621 159.547 198.058 159.096 198.058H157.909C157.458 198.058 157.092 197.621 157.092 197.081V186.05C157.092 185.51 157.458 185.073 157.909 185.073H159.096C159.547 185.073 159.912 185.51 159.912 186.05V197.081ZM154.568 180.85C154.568 181.39 154.202 181.827 153.752 181.827H152.564C152.113 181.827 151.748 181.39 151.748 180.85V169.819C151.748 169.279 152.113 168.842 152.564 168.842H153.752C154.202 168.842 154.568 169.279 154.568 169.819V180.85ZM154.568 197.081C154.568 197.621 154.202 198.058 153.752 198.058H152.564C152.113 198.058 151.748 197.621 151.748 197.081V186.05C151.748 185.51 152.113 185.073 152.564 185.073H153.752C154.202 185.073 154.568 185.51 154.568 186.05V197.081ZM149.224 180.85C149.224 181.39 148.859 181.827 148.407 181.827H147.22C146.769 181.827 146.403 181.39 146.403 180.85V169.819C146.403 169.279 146.769 168.842 147.22 168.842H148.407C148.859 168.842 149.224 169.279 149.224 169.819V180.85ZM149.224 197.081C149.224 197.621 148.859 198.058 148.407 198.058H147.22C146.769 198.058 146.403 197.621 146.403 197.081V186.05C146.403 185.51 146.769 185.073 147.22 185.073H148.407C148.859 185.073 149.224 185.51 149.224 186.05V197.081ZM143.879 180.85C143.879 181.39 143.514 181.827 143.063 181.827H141.875C141.424 181.827 141.059 181.39 141.059 180.85V169.819C141.059 169.279 141.424 168.842 141.875 168.842H143.063C143.514 168.842 143.879 169.279 143.879 169.819V180.85ZM143.879 197.081C143.879 197.621 143.514 198.058 143.063 198.058H141.875C141.424 198.058 141.059 197.621 141.059 197.081V186.05C141.059 185.51 141.424 185.073 141.875 185.073H143.063C143.514 185.073 143.879 185.51 143.879 186.05V197.081ZM169.091 165.378H137.458C137.458 165.378 138.693 199.612 139.129 200.278C139.566 200.944 161.591 202.065 169.091 202.054C176.623 202.043 198.743 200.855 199.178 200.189C199.615 199.523 200.724 165.378 200.724 165.378H169.091Z" fill="#DCDDDA"/>
<path d="M203.607 166.981H134.576V160.716H203.607V166.981Z" fill="#BCBEBC"/>
<path d="M176.14 163.78C175.064 163.78 174.321 162.255 174.696 160.821C175.236 158.759 175.872 156.08 176.03 154.353C176.315 151.213 173.796 144.283 173.796 144.283H177.104C177.104 144.283 179.261 151.775 179.192 154.032C179.143 155.658 178.15 160 177.599 162.301C177.385 163.188 176.8 163.78 176.14 163.78Z" fill="#DCDDDA"/>
<path d="M185.431 152.821C184.099 153.513 180.402 143.81 180.402 143.81L177.523 143.823L178.69 148.022L177.272 154.213C177.272 154.213 176.065 154.464 174.569 154.684C174.383 154.713 174.192 154.738 173.999 154.765C173.104 154.886 172.15 154.982 171.316 155C171.236 155.006 171.154 155.005 171.076 155.009C170.658 155.008 169.331 154.793 169.16 154.654L169.195 149.703C169.195 149.703 163.94 145.362 163.564 144.395C163.416 144.011 165.308 135.57 165.546 134.637L169.888 133.559C169.888 133.559 177.896 138.169 178.336 138.452C179.93 139.48 181.57 140.7 182.62 141.916C183.068 142.43 183.406 142.944 183.589 143.442C184.856 146.874 186.762 152.131 185.431 152.821Z" fill="#F68672"/>
<path d="M171.316 155C171.236 155.006 171.153 155.005 171.076 155.009C171.103 154.804 171.144 154.537 171.189 154.214C171.291 153.484 171.412 152.494 171.522 151.421C171.623 150.347 171.65 149.373 171.588 148.638C171.571 148.453 171.553 148.285 171.541 148.137C171.513 147.99 171.492 147.862 171.471 147.758C171.437 147.545 171.417 147.421 171.417 147.421C171.417 147.421 171.49 147.521 171.616 147.712C171.68 147.806 171.756 147.925 171.841 148.063C171.911 148.208 171.988 148.372 172.072 148.561C172.392 149.306 172.63 150.431 172.519 151.61C172.398 152.785 172.014 153.756 171.669 154.408C171.54 154.649 171.419 154.845 171.316 155Z" fill="#D03B58"/>
<path d="M174.568 154.684C174.383 154.713 174.192 154.739 173.999 154.765L174.014 154.637C174.115 153.906 174.236 152.916 174.345 151.845C174.448 150.768 174.475 149.795 174.413 149.06C174.395 148.875 174.381 148.71 174.365 148.563C174.339 148.414 174.314 148.286 174.298 148.182C174.262 147.967 174.241 147.848 174.241 147.848C174.241 147.848 174.313 147.945 174.441 148.134C174.502 148.229 174.581 148.347 174.663 148.487C174.735 148.63 174.814 148.797 174.896 148.982C175.218 149.731 175.455 150.858 175.341 152.033C175.232 153.124 174.893 154.04 174.568 154.684Z" fill="#D03B58"/>
<path d="M170.19 55.6269C170.19 55.6269 161.537 59.064 160.102 60.6684C158.666 62.2721 146.403 105.563 146.403 108.498C146.403 111.433 146.403 116.385 146.403 116.385C146.403 116.385 146.403 131.27 147.318 132.633C148.234 133.996 158.296 140.965 158.296 140.965C158.296 140.965 158.574 144.6 159.489 145.259C160.405 145.919 163.564 144.395 163.564 144.395C163.564 144.395 169.231 134.749 170.583 133.959C170.583 133.959 171.87 131.06 171.811 130.326C171.752 129.592 168 127.3 168 127.3L165.457 111.8C165.457 111.8 173.004 85.752 173.796 81.5329C174.589 77.3139 170.19 55.6269 170.19 55.6269Z" fill="#E04428"/>
<path d="M166.169 63.7397C166.169 63.7397 172.463 68.6921 173.893 72.1778C175.321 75.6634 174.535 85.6526 174.535 85.6526C174.535 85.6526 177.631 74.9292 177.116 71.8111C176.602 68.6921 166.169 63.7397 166.169 63.7397Z" fill="#633E2F"/>
<path d="M171.811 92.7113L165.457 111.8C165.457 111.8 170.082 120.1 170.357 120.994C170.631 121.888 168.634 125.81 168.634 125.81C168.634 125.81 170.357 126.978 170.905 127.598C171.454 128.217 169.876 132.207 169.876 132.207L163.564 144.395C163.564 144.395 171.687 134.017 171.811 133.559C171.935 133.102 173.376 128.148 173.376 127.323C173.376 126.498 171.076 124.915 171.076 124.915C171.076 124.915 173.034 121.407 172.896 120.65C172.758 119.893 167.542 111.088 167.542 111.088L171.811 92.7113Z" fill="#633E2F"/>
<path d="M219.796 129.409C219.796 129.409 180.154 131.977 178.47 132.528C176.785 133.078 218.331 139.498 218.331 139.498L194.827 133.559L219.796 129.409Z" fill="#633E2F"/>
<path d="M231.308 119.898C231.206 119.982 231.109 120.06 231.002 120.14C230.085 120.831 229.092 121.448 228.045 121.961C225.97 122.984 223.701 123.606 221.435 123.622C220.842 123.629 220.253 123.598 219.667 123.508C219.187 123.453 218.716 123.354 218.24 123.227C215.703 122.545 213.572 121.013 211.928 118.996C211.553 118.54 211.204 118.056 210.883 117.544C209.722 115.724 208.903 113.634 208.487 111.481C208.291 110.459 208.175 109.43 208.164 108.403C208.16 108.229 208.161 108.059 208.169 107.896C208.215 101.654 210.991 95.7356 214.155 90.3608C218.738 82.5846 224.949 71.9789 233.542 68.02C235.709 67.0233 238.116 66.8952 240.441 67.4067C241.35 67.6056 242.25 67.9031 243.113 68.2825C243.553 68.4702 243.982 68.6786 244.396 68.9157C244.886 69.1837 245.366 69.4733 245.825 69.797C246.235 70.0826 246.628 70.3856 247.006 70.7046C247.394 71.0347 247.773 71.3871 248.123 71.7562C248.63 72.2748 249.094 72.8276 249.509 73.4083C249.847 73.8808 250.151 74.366 250.407 74.868C250.736 75.4725 251 76.089 251.21 76.7285C253.119 82.6554 250.751 89.0507 248.06 94.6554C245.574 99.8584 242.779 104.903 239.708 109.78C237.359 113.511 234.78 117.202 231.308 119.898Z" fill="#20795A"/>
<path d="M208.487 111.481C208.291 110.459 208.175 109.43 208.164 108.403C208.16 108.229 208.161 108.059 208.169 107.896C208.272 107.631 208.376 107.367 208.49 107.103C211.961 98.7941 216.876 90.9733 221.896 83.5208C226.515 76.6673 232.401 69.972 240.441 67.4067C241.35 67.6056 242.25 67.9031 243.113 68.2825L242.982 68.3183C238.2 69.3611 233.986 71.9964 230.481 75.3643C227.032 78.6813 224.273 82.618 221.696 86.6318C219.313 90.3306 216.98 94.0668 214.807 97.8913C212.341 102.236 210.106 106.762 208.487 111.481Z" fill="#51C292"/>
<path d="M211.928 118.996C211.552 118.54 211.204 118.056 210.882 117.544C211.863 115.29 212.834 113.036 213.815 110.782C215.698 106.444 217.321 101.812 219.832 97.7888C222.26 93.9086 225.552 90.6656 227.996 86.791C230.404 82.9657 232.585 79.0203 235.783 75.7844C238.375 73.1626 241.352 70.9855 244.395 68.9157C244.886 69.1838 245.366 69.4734 245.825 69.7971C242.061 72.3513 238.35 75.0303 235.379 78.5072C232.467 81.9109 230.501 85.978 227.96 89.6418C225.376 93.3717 222.094 96.5495 220.008 100.618C217.912 104.709 216.24 109.059 214.409 113.275C213.582 115.187 212.757 117.089 211.928 118.996Z" fill="#51C292"/>
<path d="M221.435 123.622C220.841 123.629 220.252 123.598 219.667 123.508C221.543 120.787 223.218 117.928 224.752 114.995C228.738 107.363 231.736 99.2945 235.107 91.3925C238.239 84.0522 241.831 76.8224 247.006 70.7046C247.394 71.0347 247.773 71.3871 248.123 71.7562C245.302 75.0986 242.947 78.8022 240.905 82.6681C236.896 90.2344 234.008 98.3335 230.609 106.177C227.993 112.217 225.087 118.16 221.435 123.622Z" fill="#51C292"/>
<path d="M231.307 119.898C231.206 119.982 231.109 120.06 231.002 120.14C230.085 120.831 229.092 121.448 228.045 121.961C228.87 120.808 229.661 119.634 230.426 118.433C235.122 111.085 238.661 103.141 241.205 94.8097C243.439 87.4949 245.318 79.8809 249.509 73.4083C249.847 73.8808 250.151 74.3661 250.407 74.868C248.37 78.1826 246.89 81.8066 245.662 85.5023C244.311 89.5503 243.223 93.6794 241.894 97.737C240.566 101.806 238.979 105.788 237.111 109.639C235.396 113.177 233.453 116.603 231.307 119.898Z" fill="#51C292"/>
<path d="M233.787 101.789C233.205 102.847 236.288 108.095 235.354 106.492C234.42 104.888 228.587 100.66 227.603 101.597C226.617 102.534 231.729 111.566 231.729 111.566C231.729 111.566 226.171 105.482 224.636 107.663C224.134 108.376 224.492 109.821 225.191 111.438C223.343 110.759 221.726 110.548 221.697 111.887C221.629 115.039 229.544 118.837 229.544 118.837C239.152 122.265 240.492 106.103 240.492 106.103C240.492 106.103 234.369 100.731 233.787 101.789Z" fill="#F68672"/>
<path d="M165.753 30.8712L154.083 20.124L150.306 28.1142L165.753 30.8712Z" fill="white"/>
<path d="M170.76 29.6748L171.933 19.7652L166.494 20.4683L170.76 29.6748Z" fill="white"/>
<path d="M165.245 37.8162L154.676 37.8329L155.148 42.8529L165.245 37.8162Z" fill="white"/>
<path d="M124.891 282.68C124.891 282.68 96.9334 290 62.4457 290C27.9578 290 0 282.68 0 282.68C0 282.68 27.9578 275.36 62.4457 275.36C96.9334 275.36 124.891 282.68 124.891 282.68Z" fill="#CBB59B"/>
<path d="M84.1528 54.1493C84.1528 54.1493 88.8257 55.077 89.4854 55.7373C91.259 57.5113 97.5324 95.4251 97.5324 95.4251L86.1496 96.1837L81.0233 57.8558L84.1528 54.1493Z" fill="#F574A9"/>
<path d="M101.956 275.897L69.1886 276.818C69.1493 273.502 69.2529 270.715 69.3252 269.215C69.6367 269.232 69.9732 269.241 70.3089 269.241C70.9658 269.257 71.6541 269.275 72.3342 269.284C74.4632 269.309 76.4564 269.284 76.9045 269.13C77.9525 268.78 80.1456 261.561 80.1456 261.561V261.552L80.6339 261.527L83.5716 261.365C84.1884 262.771 85.7808 266.078 87.5732 267.596C89.8949 269.547 98.4347 272.974 100.764 274.074C101.564 274.458 101.861 275.232 101.956 275.897Z" fill="#DCDDDA"/>
<path d="M102.069 279.741L69.3172 280.662C69.2529 279.332 69.2128 278.037 69.1887 276.818L101.956 275.897L102.069 279.741Z" fill="white"/>
<path d="M49.4838 280.542C49.4838 282.076 38.3504 285.163 36.2213 284.966C34.1002 284.779 26.3208 278.813 26.3208 278.813C26.3208 278.813 26.6248 277.594 27.113 275.701C27.6493 273.605 28.4097 270.698 29.2421 267.716C30.3464 267.417 31.6191 267.025 31.9312 266.751C32.4995 266.24 34.2122 261.987 35.0689 261.987C35.9253 261.987 43.3366 261.987 43.8171 262.703C44.2895 263.411 44.4809 266.956 45.2418 267.357C45.5699 267.536 46.5542 267.818 47.5469 268.064C48.1229 271.081 48.6512 274.031 48.9071 275.795C49.2436 278.096 49.4838 280.006 49.4838 280.542Z" fill="#DCDDDA"/>
<path d="M26.3183 278.815C26.3183 278.815 34.1016 284.776 36.2237 284.97C38.3465 285.159 49.4876 282.083 49.4876 280.544C49.4876 280.004 49.247 278.096 48.907 275.795C45.2818 277.34 37.5166 280.4 34.9552 279.4C33.2177 278.72 29.9108 277.106 27.1087 275.699C26.622 277.593 26.3183 278.815 26.3183 278.815Z" fill="white"/>
<path d="M95.8722 268.063L66.214 270.559L62.1703 270.903C61.5149 258.165 63.9737 217.659 64.5669 212.588C64.5906 212.433 64.6062 212.307 64.6216 212.221C65.4494 207.307 67.7829 194.178 67.7829 194.178L65.0979 155.573L65.0898 155.683C64.8555 158.038 61.2021 195.641 60.7728 198.153C60.4531 199.977 57.7205 251.335 54.9411 268.063L24.8075 268.908L18.5152 269.088C19.413 257.766 30.9433 220.898 33.2073 213.364C33.3788 212.824 33.4883 212.433 33.5507 212.221C34.9716 207.002 41.3578 189.476 41.3578 189.476C41.3578 189.476 36.9623 151.505 37.8992 147.272C38.8357 143.046 41.3578 131.233 41.3578 131.233C41.3578 131.233 49.8046 133.893 53.653 134.339C57.5098 134.8 80.477 133.736 80.477 133.736L88.8382 131.233C88.8382 131.233 89.0873 133.657 89.4551 136.89C89.9076 140.771 90.5476 145.808 91.1725 149.173C92.3124 155.347 88.1429 199.609 88.1429 199.609L95.8722 268.063Z" fill="#46689C"/>
<path d="M89.4551 136.889C86.887 137.656 82.5461 138.9 81.7579 138.9C80.6171 138.9 55.8002 140.723 54.5118 140.113C53.2319 139.51 44.2383 138.751 44.2383 138.751C44.2383 138.751 40.9048 153.633 41.3578 156.215C41.818 158.796 44.9566 188.873 44.9566 188.873C44.9566 188.873 39.25 208.622 38.5317 214.701C38.1569 217.893 27.5084 253.213 24.8075 268.908L18.5152 269.088C19.413 257.766 30.9433 220.898 33.2073 213.364C33.3788 212.823 33.4883 212.432 33.5507 212.22C34.9716 207.002 41.3578 189.476 41.3578 189.476C41.3578 189.476 36.9623 151.505 37.8992 147.272C38.8357 143.046 41.3578 131.233 41.3578 131.233C41.3578 131.233 49.8046 133.892 53.653 134.339C57.5098 134.8 80.477 133.736 80.477 133.736L88.8382 131.233C88.8382 131.233 89.0873 133.657 89.4551 136.889Z" fill="#2C507E"/>
<path d="M71.2962 192.622C71.2962 192.622 66.4248 209.819 66.4873 211.854C66.5187 212.925 65.5584 252.633 66.2139 270.559L62.1702 270.903C61.5148 258.165 63.9736 217.659 64.5671 212.588C64.5905 212.433 64.6061 212.307 64.6215 212.221C65.4493 207.307 67.7828 194.178 67.7828 194.178L65.0978 155.573L73.2011 152.318L67.6819 159.807L71.2962 192.622Z" fill="#2C507E"/>
<path d="M52.4647 53.2627L39.909 56.9594L43.2479 98.7978L36.941 150.102C36.941 150.102 77.4741 157.539 91.6651 148.336L84.7089 101.035C84.7089 101.035 91.109 91.1639 91.6651 85.0285C92.2221 78.8931 84.1528 54.1493 84.1528 54.1493L77.0733 53.6054L52.4647 53.2627Z" fill="#F574A9"/>
<path d="M78.44 20.3259C78.1044 25.9674 75.1141 31.2171 71.1874 35.3879C67.2528 39.5498 63.6038 43.7196 58.8024 46.9126C57.2414 45.7308 45.8081 37.8446 43.8794 33.1182C43.4655 32.1404 43.1221 31.1312 42.8568 30.0988C39.9296 18.8703 44.824 9.48916 55.574 5.89809C59.7037 4.5132 67.0421 4.0435 70.9062 6.03137C74.6142 7.93963 77.0743 11.6023 78.0258 15.6075C78.3927 17.1571 78.5337 18.7531 78.44 20.3259Z" fill="#300C21"/>
<path d="M77.0742 53.6053L68.9977 50.5823L67.9113 49.9238L67.314 49.9453L59.1796 50.2477L58.5212 50.2719L57.5523 50.7729L52.4647 53.2626C55.1219 57.4191 61.1259 65.9593 65.7177 65.7857C70.1724 65.6175 74.5525 58.1599 77.0742 53.6053Z" fill="#C7614F"/>
<path d="M56.6913 51.2176C56.6913 51.2176 65.3048 52.963 66.5866 52.411C67.8693 51.8662 69.6287 50.9662 69.6287 50.9662C69.3404 50.6441 67.3503 47.6256 67.3952 46.6012C67.4992 44.2385 68.1942 40.9176 68.1942 40.9176L60.1886 38.5952C60.1886 38.5952 59.9755 40.8684 59.6402 43.2795C59.3019 45.7227 57.1721 50.8221 56.6913 51.2176Z" fill="#C7614F"/>
<path d="M59.6412 43.2759C61.885 44.7869 64.6386 46.5699 65.5218 46.8231C66.2429 47.028 66.897 46.8508 67.3925 46.6012C67.5006 44.2367 68.197 40.9194 68.197 40.9194L60.1908 38.596C60.1908 38.596 59.9743 40.8729 59.6412 43.2759Z" fill="#974237"/>
<path d="M54.7505 16.6945C58.8218 11.5262 65.9845 9.67701 71.8308 12.6821C73.1751 13.3727 74.2615 14.1788 74.7783 15.1003C76.8438 18.7862 80.2117 32.5618 77.6686 39.3905C75.1246 46.2202 70.5517 45.5295 68.9155 45.1403C67.2791 44.7503 59.5439 41.9626 57.6691 39.573C55.7935 37.1843 51.4015 24.5888 52.0727 21.216C52.2969 20.0896 53.3918 18.4194 54.7505 16.6945Z" fill="#E27062"/>
<path d="M54.1841 15.7176C58.2553 10.5493 65.4176 8.70098 71.2651 11.7052C72.6094 12.3958 73.6957 13.2019 74.2116 14.1233C76.2772 17.8092 79.6451 31.5848 77.102 38.4145C74.558 45.2432 69.985 44.5534 68.3488 44.1634C66.7134 43.7733 58.9778 40.9856 57.1026 38.5961C55.2277 36.2074 50.835 23.6127 51.5063 20.239C51.7308 19.1127 52.8253 17.4433 54.1841 15.7176Z" fill="#C7614F"/>
<path d="M69.5708 32.432C69.2209 32.3944 68.8576 32.2978 68.5264 32.4159C69.0558 33.1092 69.8663 33.5798 70.7294 33.6952L70.9294 33.6925L71.1311 33.5556C71.5033 33.1915 71.8033 32.7532 72.0077 32.2745C72.0496 32.177 72.0871 32.075 72.0862 31.9694C72.0827 31.6205 71.8738 31.7485 71.697 31.8746C71.4917 32.0204 71.2677 32.1403 71.0329 32.2316C70.5706 32.4123 70.0644 32.4856 69.5708 32.432Z" fill="#E27062"/>
<path d="M70.7527 33.4886C70.9098 33.2586 71.0981 33.0502 71.2606 32.8238C71.4614 32.5438 71.6409 32.2486 71.7837 31.9346C70.5295 31.4604 70.2644 30.3359 70.0029 29.0521C69.8851 28.4724 69.9047 27.8667 70.06 27.2968C70.1404 26.9971 70.2582 26.7072 70.4099 26.4361C70.4867 26.2984 70.5715 26.166 70.6643 26.0381C70.7554 25.9137 70.8607 25.8305 70.9848 25.7401C70.9375 25.8323 70.9143 25.9307 70.8732 26.0237C70.7679 26.2653 70.6509 26.4952 70.5715 26.7475C70.4912 27.0007 70.4331 27.261 70.3965 27.524C70.3242 28.0492 70.3385 28.5886 70.4474 29.1084C70.5536 29.6184 70.7536 30.1104 71.0544 30.5363C71.3981 31.0229 71.9033 31.464 72.4692 31.6573C72.4746 31.659 71.9479 32.6941 71.8926 32.7809C71.7507 33.0063 71.5882 33.2193 71.4034 33.4116C71.2231 33.6004 71.0169 33.8232 70.7527 33.8777C70.6697 33.8947 70.5813 33.8965 70.5028 33.8661L70.6027 33.7328L70.6402 33.6702L70.7527 33.4886Z" fill="#974237"/>
<path d="M64.0537 35.8745C66.8079 37.2236 70.153 37.2979 72.9639 36.0713C71.6151 37.1243 70.0914 37.8275 68.382 37.8087C66.6727 37.7899 65.3787 36.957 64.0537 35.8745Z" fill="#974237"/>
<path d="M66.8435 38.707C67.9972 39.3341 69.4585 39.3529 70.6269 38.7562C70.2011 39.3583 69.5825 39.7546 68.847 39.7895C68.1124 39.8253 67.3246 39.2652 66.8435 38.707Z" fill="#974237"/>
<path d="M56.5886 32.6942C56.1747 32.5206 53.9945 29.9521 52.6499 31.6582C51.3057 33.3642 51.0662 36.0768 52.4982 37.5144C53.8054 38.826 55.6018 40.2207 57.6692 39.573L56.5886 32.6942Z" fill="#C7614F"/>
<path d="M52.8053 33.7113C52.7418 34.0755 52.8203 34.4449 52.9531 34.792C53.5184 36.2655 54.9995 37.3238 56.4156 38.3035C55.9626 37.6003 55.7614 36.7862 55.7935 35.9783C55.8051 35.6974 55.8437 35.4174 55.8283 35.1365C55.7674 34.0083 53.1805 31.5597 52.8053 33.7113Z" fill="#E27062"/>
<path d="M57.12 38.6882L57.0405 38.6471C56.9896 38.6185 56.908 38.5818 56.8145 38.5227C56.6255 38.4055 56.363 38.215 56.1085 37.9242C55.8549 37.6343 55.6171 37.2407 55.4858 36.7648C55.3644 36.2897 55.348 35.7288 55.5558 35.1741L55.6412 34.9701L55.6649 34.92L55.6681 34.9146L55.6678 34.9164L55.6691 34.9156H55.6695L55.6649 34.9075L55.6402 34.8663L55.5893 34.7832L55.4847 34.6212C55.3435 34.4092 55.1924 34.2115 55.0387 34.0281C54.8849 33.8456 54.7273 33.6774 54.5718 33.5253C54.4156 33.3732 54.2657 33.2318 54.1185 33.129C53.9721 33.0252 53.8141 32.9617 53.6694 32.951C53.5244 32.9429 53.3905 32.9867 53.3019 33.0404C53.2123 33.0959 53.1652 33.1621 53.1467 33.2113L53.1276 33.2873L53.1269 33.2077C53.1328 33.154 53.1652 33.0726 53.2528 32.9939C53.3402 32.917 53.4797 32.8409 53.6698 32.8239C53.8598 32.8096 54.0693 32.865 54.259 32.9634C54.4508 33.0627 54.6252 33.1898 54.8096 33.3312C54.993 33.4734 55.1796 33.6353 55.3605 33.8169C55.5415 33.9985 55.7179 34.1999 55.8801 34.4199L55.9993 34.5881L56.0569 34.6749L56.1335 34.7984L56.1869 34.8842L56.1465 34.9764L56.0858 35.1088L56.0126 35.285C55.8316 35.7672 55.8159 36.2593 55.8832 36.6968C55.9596 37.1333 56.1231 37.5154 56.3117 37.8142C56.5011 38.1139 56.7096 38.3322 56.8648 38.4753L57.0527 38.6328L57.12 38.6882Z" fill="#974237"/>
<path d="M76.3396 21.9442C76.3396 21.9442 74.2616 20.5065 73.0208 20.6917C71.7783 20.8778 71.4632 22.0453 71.9666 22.2466C72.471 22.4479 76.3396 21.9442 76.3396 21.9442Z" fill="#470A27"/>
<path d="M58.8024 24.8258C58.8024 24.8258 61.5465 22.1374 63.4639 21.666C65.3814 21.1945 66.1655 22.2904 65.4619 22.7825C64.758 23.2754 58.8024 24.8258 58.8024 24.8258Z" fill="#470A27"/>
<path d="M64.3474 33.4215C64.3004 34.0209 62.9823 34.4047 61.4038 34.2803C59.8253 34.1551 58.584 33.5691 58.6314 32.9697C58.6785 32.3703 59.9962 31.9856 61.5746 32.1108C63.1535 32.2361 64.3948 32.823 64.3474 33.4215Z" fill="#E27062"/>
<path d="M79.4646 29.5657C79.6797 29.9665 78.8773 30.8172 77.6722 31.4668C76.4672 32.1154 75.3157 32.3167 75.1014 31.9159C74.8854 31.516 75.6888 30.6643 76.8939 30.0148C78.0989 29.3653 79.2504 29.164 79.4646 29.5657Z" fill="#E27062"/>
<path d="M51.5303 35.0416C49.1841 31.9211 46.9727 27.9096 46.3185 24.0573C45.6655 20.205 46.3255 16.0387 48.6223 12.8806C50.7039 10.0196 53.9512 8.18651 57.3317 7.15589C62.1519 5.6869 67.6491 5.78529 71.9417 8.42983C76.2335 11.0726 78.8864 16.5979 77.3225 21.3976C75.9889 19.509 74.0903 18.0266 71.9373 17.1928C71.7829 18.1044 71.4267 18.9811 70.9018 19.7416C70.4618 18.3585 69.7146 17.0738 68.7301 16.0083C68.4882 17.5292 67.553 18.9248 66.2402 19.7237C66.0533 18.2574 65.478 16.8439 64.5885 15.6647C63.7991 17.7815 62.2067 19.585 60.2066 20.6282C60.2091 19.2549 60.2108 17.8817 60.2126 16.5084C59.6554 19.6012 57.6243 22.3942 54.8568 23.873C54.8568 23.873 55.3997 30.9138 55.1047 32.1224C55.1047 32.1224 53.9014 31.2206 52.7828 32.0875C51.665 32.9535 51.5303 35.0416 51.5303 35.0416Z" fill="#300C21"/>
<path d="M63.503 26.811C62.2261 26.972 61.0947 27.7763 60.3 28.7917C62.1449 28.1297 64.2318 27.958 66.1555 28.3346L66.7664 28.3901C66.1837 27.2396 64.7805 26.65 63.503 26.811Z" fill="#121414"/>
<path d="M74.2769 25.6157C75.1579 25.4359 76.0862 25.715 76.8387 26.2089C75.4703 26.1847 74.051 26.5381 72.8612 27.218L72.4693 27.3916C72.5987 26.4997 73.3958 25.7947 74.2769 25.6157Z" fill="#121414"/>
<path d="M69.8289 10.4365C70.219 11.4143 70.219 12.5407 69.8218 13.5114C68.814 11.7033 67.1748 10.2638 65.2622 9.50518C65.6524 10.8507 65.8006 12.2669 65.7071 13.667C64.6458 12.1104 62.9672 10.9992 61.1247 10.6163C61.5069 12.0871 61.4682 13.6599 61.0076 15.0994C60.1097 13.4013 58.5794 12.0477 56.784 11.3598C56.1361 17.5721 51.9752 23.6127 46.5027 26.5936C45.3395 28.6352 44.4493 30.8342 43.8795 33.1182C43.4656 32.1403 43.1222 31.1312 42.8568 30.0988C42.2638 27.8371 41.998 25.6543 42.0295 23.5724C42.1385 15.3266 46.9867 8.76981 55.5741 5.89803C59.7038 4.51313 67.0422 4.04343 70.9063 6.03131C72.8737 7.04761 74.4974 8.5506 75.7078 10.3497C76.8003 11.9305 77.5814 13.7305 78.0259 15.6075C75.6292 13.4094 72.8424 11.6407 69.8289 10.4365Z" fill="#470A27"/>
<path d="M67.3464 9.12145C65.9879 7.68198 64.0593 6.79808 62.0847 6.70415C62.2486 7.58805 62.4125 8.47196 62.5764 9.35586C61.4833 8.44065 60.0708 7.90119 58.6419 7.86988C58.6962 8.66789 58.751 9.46589 58.8058 10.2639C57.5801 9.21539 55.9954 8.59722 54.3792 8.54265C53.3726 15.2873 48.3916 21.2259 42.0292 23.5725C42.1383 15.3267 46.9865 8.76988 55.5738 5.8981C59.7036 4.51321 67.042 4.0435 70.9061 6.03138C72.8734 7.04769 74.4971 8.55067 75.7075 10.3498C72.9591 8.879 69.9697 7.85377 66.9011 7.32235C67.0493 7.92444 67.1982 8.51936 67.3464 9.12145Z" fill="#630D30"/>
<path d="M39.909 56.9593C39.909 56.9593 31.4688 60.672 30.3554 63.2754C29.2425 65.8788 21.8225 102.154 21.4514 104.002C21.4514 104.002 40.5582 108.827 47.2366 106.595L48.1641 85.7728L39.909 56.9593Z" fill="#F574A9"/>
<path d="M39.9089 60.9046C39.9089 60.9046 48.3495 73.4545 48.164 75.2671C47.9788 77.0805 44.038 103.101 44.038 103.101C44.038 103.101 51.0392 77.6379 50.2045 74.9888C49.3701 72.3389 39.9089 60.9046 39.9089 60.9046Z" fill="#F14A8F"/>
<path d="M55.8754 77.4957C53.0179 82.9261 41.1913 84.5686 40.5661 84.6474L40.5431 84.6554C40.5431 84.6554 43.4163 78.9825 44.6025 74.7026C45.7894 70.4307 36.0929 55.1816 39.4346 48.9532C42.7681 42.7248 49.2473 38.5629 49.2473 38.5629L49.7864 39.0469L50.6218 39.7913L50.8014 39.9469L52.0033 40.9955L50.0441 45.7603C50.0441 45.7603 56.0316 52.6776 56.6324 54.4695C57.2336 56.2606 58.8186 71.9176 55.8754 77.4957Z" fill="#300C21"/>
<path d="M50.6685 79.0765C49.2159 80.7897 41.0738 84.4201 40.5661 84.6474L40.5431 84.6554C40.5431 84.6554 43.4163 78.9825 44.6025 74.7026C45.7894 70.4307 36.0929 55.1816 39.4346 48.9532C42.7681 42.7248 49.2477 38.5629 49.2477 38.5629L49.7864 39.0469L50.6218 39.7913L50.8014 39.9469C49.8564 41.4812 48.0845 44.1258 47.4052 45.7603C46.2029 48.6786 51.5817 55.2675 51.5817 58.2011C51.5817 61.1355 52.1672 77.3087 50.6685 79.0765Z" fill="#470A27"/>
<path d="M47.78 65.5952C48.1465 68.2004 47.6005 76.5652 46.9449 77.9573C46.2967 79.3502 40.5431 84.6554 40.5431 84.6554C40.5431 84.6554 43.4163 78.9825 44.6025 74.7026C45.7894 70.4307 36.0929 55.1816 39.4346 48.9532C42.7681 42.7248 49.2477 38.5629 49.2477 38.5629L49.7864 39.0469C46.7884 42.5136 41.5968 48.8825 41.4716 50.0017C41.2848 51.6523 47.4052 62.99 47.78 65.5952Z" fill="#630D30"/>
<path d="M70.0038 92.5505L55.7741 93.4237C55.7741 93.4237 49.4211 61.5872 53.274 52.4611C53.8525 51.0816 54.6667 50.2245 55.7741 50.0697C60.1236 49.4649 63.7726 60.7955 66.2806 71.906C68.6425 82.3302 70.0038 92.5505 70.0038 92.5505Z" fill="#FAB663"/>
<path d="M62.0068 62.8837C59.6397 61.2205 56.8913 60.1058 54.0363 59.6504C56.2843 61.862 58.8599 63.0384 62.0068 62.8837Z" fill="#F7923D"/>
<path d="M62.8575 70.9962C60.4902 69.3331 57.7423 68.2175 54.8872 67.7621C57.1352 69.9745 59.7106 71.151 62.8575 70.9962Z" fill="#F7923D"/>
<path d="M63.7807 79.4755C61.4136 77.8124 58.6649 76.6967 55.8102 76.2414C58.0578 78.4538 60.6335 79.6294 63.7807 79.4755Z" fill="#F7923D"/>
<path d="M66.2806 71.906C65.9142 70.6813 65.5722 69.4485 65.2228 68.2246C64.1718 64.5995 62.9828 60.9342 60.7917 57.8656C58.9506 55.3025 56.2958 53.1876 53.274 52.4611C53.8526 51.0816 54.6667 50.2245 55.7741 50.0698C60.1236 49.465 63.7726 60.7955 66.2806 71.906Z" fill="#F7923D"/>
<path d="M74.6257 83.759C74.573 86.5601 74.5141 89.0982 74.473 90.7819C74.4435 91.9512 73.6777 92.8781 72.7422 92.8781H63.6556C62.7194 92.8781 61.954 91.9512 61.9243 90.7819C61.8829 89.0982 61.8243 86.5601 61.7713 83.759C61.7064 80.346 61.6594 76.551 61.6712 73.4475C61.6887 70.1159 61.7713 67.593 61.9774 67.1815C62.6723 65.835 65.0392 64.4904 65.0392 64.4904L65.5985 53.2448H70.7927L71.3577 64.4904C71.3577 64.4904 73.725 65.835 74.4194 67.1815C74.6256 67.593 74.7087 70.1159 74.7203 73.4475C74.7381 76.551 74.6908 80.346 74.6257 83.759Z" fill="#2EAE7D"/>
<path d="M70.8589 54.1896H65.5383C65.1502 54.1896 64.8357 53.8747 64.8357 53.4855V52.8789C64.8357 52.4889 65.1502 52.174 65.5383 52.174H70.8589C71.2463 52.174 71.5614 52.4889 71.5614 52.8789V53.4855C71.5614 53.8747 71.2463 54.1896 70.8589 54.1896Z" fill="#363950"/>
<path d="M74.6257 83.759H61.7713C61.7064 80.346 61.6594 76.551 61.6712 73.4475H74.7203C74.7381 76.551 74.6908 80.346 74.6257 83.759Z" fill="#20795A"/>
<path d="M94.8662 62.4381C95.0617 61.2545 95.1867 60.0199 94.843 58.8712C94.4994 57.7207 93.5871 56.6704 92.4017 56.4968C90.8556 56.2705 89.4765 57.5597 88.7687 58.9562C87.8662 60.7365 87.635 62.7978 87.7796 64.7901C87.9109 66.5955 88.2822 72.9071 90.8789 71.5151C93.3827 70.1731 94.4556 64.9243 94.8662 62.4381Z" fill="#20795A"/>
<path d="M88.7114 78.0011L89.5523 77.9098C89.688 77.4071 91.0608 71.8433 91.1787 71.3316C91.8731 68.2746 92.2123 65.1336 92.1802 61.9898C92.1784 61.4853 91.3938 61.479 91.4 61.9827C91.4313 65.2642 91.0582 68.5278 90.2896 71.702C90.1878 72.118 88.831 77.5878 88.7114 78.0011Z" fill="#51C292"/>
<path d="M101.047 62.5759C101.987 61.8333 103.005 61.1283 104.175 60.8752C105.346 60.622 106.705 60.9154 107.428 61.8718C108.372 63.1198 107.911 64.9538 107.033 66.2483C105.912 67.8989 104.223 69.0968 102.411 69.9315C100.769 70.6875 95.075 73.4072 95.0384 70.4558C95.0027 67.6108 99.0722 64.1361 101.047 62.5759Z" fill="#20795A"/>
<path d="M89.8371 78.0728L89.9094 78.0638L91.0296 77.935L91.0573 77.9296C91.5474 77.4259 94.6484 71.5383 95.1572 71.0704C97.5628 68.858 100.235 66.9551 103.113 65.4011C103.558 65.1587 103.178 64.477 102.732 64.7132C99.9729 66.2036 97.3914 68.0144 95.059 70.1033C94.1476 70.9139 90.669 77.1799 89.8371 78.0728Z" fill="#51C292"/>
<path d="M91.8491 65.571C92.9336 65.8976 94.0164 66.3521 94.8171 67.1554C95.8972 68.2397 96.3301 69.8608 96.198 71.3871C95.9177 74.6248 93.022 77.4267 89.7844 77.5931C86.7245 77.7515 83.5164 75.3637 82.5345 72.4633C81.6838 69.9512 83.6806 66.4907 85.9899 65.5308C87.8421 64.7605 89.9772 65.0083 91.8491 65.571Z" fill="#E83847"/>
<path d="M90.3217 67.2136C90.5547 64.8581 91.4089 62.5669 92.7729 60.6336C93.1192 60.8832 93.4209 61.1891 93.7673 61.4388C92.7256 63.4034 91.1322 65.1425 90.3217 67.2136Z" fill="#312A2A"/>
<path d="M90.4146 66.7251C90.8931 65.2615 90.7413 63.6028 90.0049 62.2501C89.2694 60.8983 87.959 59.8722 86.4719 59.483C86.014 60.8957 86.0068 62.4371 86.6915 63.7549C87.377 65.0718 88.9971 66.293 90.4146 66.7251Z" fill="#2EAE7D"/>
<path d="M78.4489 65.5478C79.479 65.0763 80.5921 64.7024 81.7221 64.7766C83.2485 64.8786 84.6401 65.8108 85.5444 67.0463C87.4635 69.6658 87.1297 73.6863 84.8053 75.9506C82.6085 78.0915 78.6256 78.4162 75.979 76.8846C73.6876 75.5579 72.9128 71.6367 74.0169 69.3885C74.9024 67.5858 76.6707 66.3619 78.4489 65.5478Z" fill="#F1435B"/>
<path d="M78.3801 67.7915C77.0063 65.8663 76.1405 63.5796 75.895 61.2249C76.319 61.1837 76.7484 61.2142 77.1724 61.173C77.6812 63.338 77.6285 65.699 78.3801 67.7915Z" fill="#312A2A"/>
<path d="M78.1302 67.3631C77.5268 65.946 76.3209 64.8 74.8775 64.2694C73.4341 63.7398 71.7747 63.8338 70.4009 64.5244C70.9856 65.8887 71.9952 67.0526 73.3761 67.5903C74.7579 68.128 76.7788 67.9741 78.1302 67.3631Z" fill="#20795A"/>
<path d="M78.1721 58.4194C78.1462 58.1322 78.1266 57.8352 78.2212 57.5623C78.3149 57.2904 78.5524 57.047 78.8407 57.0372C79.2156 57.0246 79.4869 57.3834 79.6708 57.7126C80.2555 58.7549 80.6697 59.8928 80.8937 61.0675C80.9857 59.3901 81.5739 57.7439 82.5638 56.3894C82.8852 55.9502 83.4975 55.5127 83.9081 55.8679C84.1572 56.0835 84.15 56.4664 84.1126 56.7938C83.9671 58.0687 83.6787 59.3265 83.2556 60.537C83.9724 59.5931 85.0927 58.9696 86.2709 58.8586C86.5887 58.8282 86.9806 58.8774 87.11 59.17C87.2287 59.4402 87.0448 59.7434 86.8574 59.9725C86.1156 60.8778 85.1855 61.6266 84.1429 62.1572C84.6285 61.9174 85.1453 61.6723 85.6836 61.7215C86.2218 61.7698 86.761 62.2413 86.6726 62.7763C86.6048 63.194 86.2084 63.4669 85.838 63.6709C84.7008 64.2971 80.8741 66.0712 79.6824 65.0656C79.1183 64.5897 78.9219 62.7548 78.7586 62.057C78.4792 60.8599 78.2828 59.6432 78.1721 58.4194Z" fill="#2EAE7D"/>
<path d="M83.2906 67.6001C83.1772 68.7201 82.7086 69.7687 82.1534 70.7608C82.073 70.9057 81.9829 71.056 81.8945 71.1983C81.8365 71.3065 81.7749 71.4049 81.7142 71.5087C80.2601 73.935 78.6391 76.4104 76.8297 78.7034C76.7262 78.8358 76.6191 78.9709 76.5102 79.1006C75.4042 80.4801 74.2242 81.7881 72.97 82.9779C71.1794 84.6768 70.2805 83.7965 70.6956 81.6619C70.8429 80.9024 71.0071 80.1455 71.1955 79.3905C71.2294 79.2267 71.2722 79.0585 71.3115 78.893C71.7328 77.2075 72.2372 75.5372 72.8209 73.8974C72.8799 73.739 72.9388 73.5816 72.9977 73.4232C73.3056 72.5885 73.6332 71.761 73.9831 70.9469C74.0483 70.7912 74.1161 70.64 74.1876 70.4879C74.5883 69.5745 75.0177 68.6754 75.4694 67.7888C75.8086 67.1286 76.1772 66.4612 76.6137 65.8627C76.7244 65.7097 76.8378 65.5612 76.9565 65.427C77.2216 65.1076 77.5153 64.8142 77.8402 64.5574C78.9033 63.7317 80.4199 63.3559 81.6142 63.975C82.8719 64.6227 83.4281 66.1928 83.2906 67.6001Z" fill="#F68640"/>
<path d="M72.8539 80.074C72.304 79.8486 71.747 79.6205 71.1954 79.3905C71.2293 79.2268 71.2721 79.0586 71.3114 78.8931C71.8881 79.1284 72.4647 79.3646 73.0413 79.6008C73.3404 79.7305 73.1556 80.1975 72.8539 80.074Z" fill="#F46F2E"/>
<path d="M76.8297 78.7034C76.7261 78.8358 76.619 78.9709 76.5101 79.1006C75.4032 78.5209 74.2687 77.9912 73.1136 77.5153C72.8119 77.3918 72.9994 76.9186 73.3002 77.0411C74.5026 77.5359 75.6808 78.0914 76.8297 78.7034Z" fill="#F46F2E"/>
<path d="M76.2066 75.5981C75.1301 74.9334 73.9956 74.3653 72.8209 73.8974C72.8798 73.7391 72.9387 73.5817 72.9976 73.4233C74.216 73.9046 75.3898 74.5004 76.5065 75.1929C76.785 75.3647 76.4851 75.7708 76.2066 75.5981Z" fill="#F46F2E"/>
<path d="M78.7292 73.0359C77.2269 72.1681 75.6327 71.4685 73.9831 70.9469C74.0483 70.7913 74.1161 70.6401 74.1875 70.488C75.871 71.0221 77.4947 71.7378 79.0327 72.628C79.3121 72.7881 79.0077 73.1961 78.7292 73.0359Z" fill="#F46F2E"/>
<path d="M82.1532 70.7609C82.0728 70.9058 81.9827 71.0561 81.8943 71.1984C80.4206 70.2644 78.8022 69.5746 77.0982 69.1702C76.7894 69.0942 76.842 68.5905 77.1625 68.6674C78.9299 69.0888 80.6161 69.7983 82.1532 70.7609Z" fill="#F46F2E"/>
<path d="M80.9768 67.3443C80.884 67.4624 80.7403 67.4633 80.6198 67.3997C79.3674 66.701 78.0151 66.1777 76.6136 65.8628C76.7243 65.7098 76.8377 65.5613 76.9564 65.4271C78.3391 65.7661 79.6718 66.2922 80.9215 66.9873C81.0402 67.058 81.05 67.2459 80.9768 67.3443Z" fill="#F46F2E"/>
<path d="M53.1242 131.233L62.2596 138.295L100.57 131.507L96.9523 71.7351L92.8712 75.7323L86.8424 72.8507L84.1529 77.3132L78.5811 74.1524L75.3409 78.5218L70.7376 75.9184L68.1971 79.9156L63.9194 77.2201L61.4894 82.0028L59.6414 78.8931L57.9033 81.0313L55.4917 78.9861L53.1242 82.0028V131.233Z" fill="#C07E53"/>
<path d="M62.2596 138.295L53.1242 131.233V82.0028L55.4917 78.9861L57.9033 81.0313L59.6414 78.8931L61.4894 82.0028L62.2596 138.295Z" fill="#A55D39"/>
<path d="M76.8252 101.433C77.3787 102.836 67.3413 105.551 67.3413 105.551L67.0616 108.433L71.3623 107.692L77.3849 109.738C77.3849 109.738 77.5134 110.971 77.5804 112.49C77.5911 112.68 77.5956 112.873 77.6027 113.069C77.6331 113.976 77.6322 114.941 77.5652 115.777C77.5625 115.858 77.5536 115.94 77.5491 116.019C77.5063 116.435 77.4474 116.813 77.3679 117.126C77.2769 117.475 77.1582 117.742 77.002 117.899L72.0746 117.362C72.0746 117.362 67.2175 122.179 66.2171 122.458C65.8196 122.567 64.0885 122.054 62.1473 121.396C61.2163 121.079 57.6043 119.817 56.6987 119.486L56.0652 115.032L59.391 110.39C59.7633 109.827 60.2718 109.091 60.8655 108.291L60.8641 108.289C61.1556 107.895 61.4684 107.487 61.7948 107.076C62.9804 105.585 64.3618 104.069 65.6788 103.141C66.2363 102.745 66.7823 102.459 67.2967 102.326C70.8446 101.407 76.2736 100.033 76.8252 101.433Z" fill="#C7614F"/>
<path d="M77.5651 115.777C77.5624 115.858 77.5535 115.94 77.549 116.019C77.3482 115.969 77.0867 115.902 76.7707 115.824C76.0521 115.648 75.0791 115.426 74.0214 115.208C72.9627 114.998 71.9942 114.872 71.256 114.859C71.0703 114.858 70.9016 114.858 70.7517 114.856C70.6026 114.869 70.4732 114.877 70.3678 114.888C70.1518 114.9 70.0269 114.907 70.0269 114.907C70.0269 114.907 70.134 114.844 70.3375 114.737C70.4366 114.684 70.5633 114.619 70.7097 114.549C70.8606 114.493 71.0311 114.432 71.2283 114.368C72.0013 114.123 73.1475 113.998 74.3106 114.23C75.4683 114.47 76.3967 114.953 77.0108 115.364C77.2375 115.518 77.4214 115.658 77.5651 115.777Z" fill="#974237"/>
<path d="M77.5804 112.49C77.5911 112.68 77.5956 112.873 77.6027 113.069L77.4768 113.04C76.7592 112.865 75.7853 112.643 74.7293 112.427C73.6689 112.215 72.7004 112.088 71.9631 112.076C71.7765 112.075 71.6105 112.072 71.4632 112.073C71.3114 112.084 71.182 112.096 71.0767 112.102C70.8589 112.117 70.7375 112.125 70.7375 112.125C70.7375 112.125 70.8428 112.063 71.0437 111.954C71.1445 111.903 71.2695 111.836 71.4177 111.767C71.5667 111.71 71.7417 111.648 71.9345 111.585C72.7129 111.34 73.8581 111.215 75.0185 111.449C76.0933 111.668 76.9716 112.1 77.5804 112.49Z" fill="#974237"/>
<path d="M60.2447 120.737C60.2447 120.737 29.8918 124.072 27.5267 123.096C25.1616 122.12 23.7703 119.47 23.7703 119.47L24.6532 104.746C24.6532 104.746 36.9694 107.059 39.065 107.046L37.2703 111.528L57.6694 113.069L60.2447 120.737Z" fill="#C7614F"/>
<path d="M96.6166 101.123C96.422 102.14 100.329 105.6 99.1427 104.54C97.9555 103.481 92.0758 101.587 91.5206 102.613C90.9663 103.64 97.5306 109.645 97.5306 109.645C97.5306 109.645 91.384 106.164 90.711 108.352C90.4914 109.067 91.1653 110.15 92.1651 111.282C90.4771 111.222 89.1024 111.481 89.4336 112.581C90.2147 115.17 97.6779 116.158 97.6779 116.158C106.425 116.395 103.229 102.855 103.229 102.855C103.229 102.855 96.8094 100.105 96.6166 101.123Z" fill="#C7614F"/>
<path d="M91.1761 36.9266L103.003 26.0335L106.832 34.1318L91.1761 36.9266Z" fill="white"/>
<path d="M86.0996 35.7135L84.9115 25.6694L90.4244 26.3824L86.0996 35.7135Z" fill="white"/>
<path d="M91.6901 43.9656L102.403 43.9835L101.924 49.0713L91.6901 43.9656Z" fill="white"/>
</svg>
